<svg xmlns="http://www.w3.org/2000/svg" xml:space="preserve" width="572.50104" height="230.3669" viewBox="0 0 572.50103 230.3669"><defs><clipPath id="a" clipPathUnits="userSpaceOnUse"><path d="M0 172.776h429.376V0H0Z"/></clipPath></defs><g clip-path="url(#a)" transform="matrix(1.33333 0 0 -1.33333 0 230.367)"><path d="M0 0c-4.99.534-13.188 4.455-26.021 30.118C-38.852 55.782-53.109 72-53.109 72c6.059 1.96 16.93 14.435 36.178 38.138S-.356 140.257-4.99 141.861s-7.842-2.317-22.1-26.198c-14.257-23.881-34.752-35.465-34.752-35.465l2.495 53.822c2.673 4.276 1.783 9.267-3.208 9.98-4.99.712-5.881-1.426-7.485-4.813-1.604-3.385-6.237-17.821-6.594-23.167-.356-5.347 1.01-12.179 1.01-12.179l-1.069-21.505s-2.971-49.9 0-61.663 5.762-15.149 15.385-11.406.892 9.446.892 9.446l-2.495 13.544c-1.248 6.772.713 31.188.713 31.188 1.96-.891 9.267-11.94 21.029-36.535s24.951-38.316 33.684-37.96S4.989-.535 0 0" style="fill:#efacc9;fill-opacity:1;fill-rule:nonzero;stroke:none" transform="translate(78.763 11.807)"/><path d="M0 0c-4.99.534-13.188 4.455-26.021 30.118C-38.852 55.782-53.109 72-53.109 72c6.059 1.96 16.93 14.435 36.178 38.138S-.356 140.257-4.99 141.861s-7.842-2.317-22.1-26.198c-14.257-23.881-34.752-35.465-34.752-35.465l2.495 53.822c2.673 4.276 1.783 9.267-3.208 9.98-4.99.712-5.881-1.426-7.485-4.813-1.604-3.385-6.237-17.821-6.594-23.167-.356-5.347 1.01-12.179 1.01-12.179l-1.069-21.505s-2.971-49.9 0-61.663 5.762-15.149 15.385-11.406.892 9.446.892 9.446l-2.495 13.544c-1.248 6.772.713 31.188.713 31.188 1.96-.891 9.267-11.94 21.029-36.535s24.951-38.316 33.684-37.96S4.989-.535 0 0Z" style="fill:none;stroke:#000;stroke-width:1.5;stroke-linecap:butt;stroke-linejoin:miter;stroke-miterlimit:10;stroke-dasharray:none;stroke-opacity:1" transform="translate(78.763 11.807)"/><path d="M0 0c-1.142-7.309-3.8-14.392-6.347-21.307-2.591-7.034-5.515-13.958-9.05-20.572-.597-1.117-1.29-2.298-2.453-2.797-2.201-.945-3.35 1.556-3.804 3.295-.69 2.636-.853 5.381-.893 8.107-.176 12.024 1.258 26.014 8.487 36.068 1.751 2.434 4.449 4.909 7.678 4.478 2.62-.35 5.928-2.282 6.461-5.065q.02-.098.031-.196C.197 1.342.104.666 0 0m-76.613-8.434c2.175 7.516 6.316 11.33 8.821 10.604s3.167-6.323 1.604-13.99c-1.782-8.741-8.633-16.141-11.138-15.416-2.506.726-1.464 11.286.713 18.802m-39.863 26.792-.25 24.179h4.171s.239-19.163-3.564-23.793zm2.139 49.188c3.208 0 2.258-17.228 2.258-17.228h-4.515s-.95 17.228 2.257 17.228m-19.841-109.485c-3.208-5.703-4.99-8.732-7.664-8.732s-7.782-2.674-7.544 26.019c.033 4.069.002 8.14.064 12.209.059 3.943.017 7.997.792 11.867l.207 1.035c.611 3.054 1.201 6.11 1.789 9.166 1.076 5.6 2.582 10.827 2.97 16.515.304 4.456.456 11.338.475 15.684h12.653s-.712-43.664.713-56.674c1.426-13.01-1.247-21.386-4.455-27.089m-17.346 60.297-.251 22.337h4.171s.238-17.703-3.564-21.981zm2.138 49.188c3.208 0 2.257-17.228 2.257-17.228h-4.515s-.95 17.228 2.258 17.228m-39.148-80.213c-2.005-.04-5.703 3.209-6.505 6.505-.773 3.172-.981 10.292 1.336 10.827 2.597.599 4.959-3.405 6.059-7.441 1.102-4.035.885-9.854-.89-9.891m-10.04-36.46c-6.42.001-6.18 40.04-6.18 40.04s2.972-4.515 6.893-8.792 9.03-4.159 9.03-4.159-2.258-27.09-9.743-27.089M28.535-78.028c-.689 2.147-2.365 3.944-2.763 5.347-3.06 10.809-7.873 32.488-8.287 66.564-.535 44.02 6.06 83.05 6.06 83.05s3.208 6.415-4.277 6.593c-7.486.179-9.624-14.435-10.515-19.782-.892-5.346-4.813-47.94-6.416-51.327 0 0 1.247-2.495-4.277-1.069-5.525 1.426-19.783 1.069-27.268-13.544-7.485-14.614-7.307-27.624-7.307-27.624s-10.158-21.387-25.841-21.564c-15.683-.179-15.149 18.713-15.149 18.713s12.119-1.07 16.931 13.187C-55.763-5.226-56.297 9.209-71.089 8.14s-19.782-20.495-21.03-34.039c0 0-10.158-27.268-16.039-26.377s-5.881 14.258-6.06 27.624-1.069 25.307 3.03 37.604 4.456 21.565 4.812 29.585h29.228s2.634-.019 2.634 3.723-3.525 3.583-3.525 3.583h-28.516s2.852 28.871-10.871 28.871c-13.722 0-11.775-28.871-11.775-28.871h-12s2.211 28.515-11.69 28.515-13.025-30.297-13.025-30.297l-34.915-.535s-3.743.357-3.743-3.742 4.098-3.386 4.098-3.386l34.56.891v-52.218s-6.223-5.168-11.213-4.099c0 0-1.247 27.802-16.752 27.267-15.505-.534-11.763-14.257-11.763-14.257s-15.148 2.673-15.504-10.158c-.357-12.832-.713-13.545-.713-13.545s-5.168-7.486-9.446-12.119-7.663-7.663-11.762 5.703-6.773 30.832-19.604 30.119c0 0-6.951-.713-10.337-7.307l-.713 13.188s-1.247 4.634-6.593 4.812c-3.563.119-7.308-1.782-7.308-3.029v-49.901s3.743-14.615 10.516-14.615c6.771 0 6.95 2.852 6.771 11.584-.178 8.734-1.171 30.654.038 31.545s2.636 5.347 7.804 4.812c5.169-.534 7.129-8.376 8.019-14.97.892-6.595 4.813-23.525 15.328-23.882 10.514-.356 18.356 11.05 18.356 11.05s1.248-20.495 20.495-20.139 22.099 25.663 23.703 35.287l11.584 4.099s-.177-42.058 19.96-40.989c0 0 11.05-.713 16.397 10.336 0 0 1.782 4.634 3.742.713 1.961-3.921 7.129-11.268 14.435-11.07 7.308.199 16.576 8.753 18.357 13.387 1.782 4.634 3.743 0 5.169-2.495s6.237-10.741 22.455-10.896c16.218-.154 28.158 17.49 28.158 17.49s4.277-9.446 15.861-9.446c11.585 0 22.456 15.862 23.169 22.278 0 0 1.247 4.811 1.07-2.674-.179-7.484 3.029-49.901 12.831-52.931 0 0 2.674 0 5.882 1.426s5.703-.178 6.772.713.148 2.933-.713 5.614" style="fill:#efacc9;fill-opacity:1;fill-rule:nonzero;stroke:none" transform="translate(373.515 88.498)"/><path d="M0 0c-1.142-7.309-3.8-14.392-6.347-21.307-2.591-7.034-5.515-13.958-9.05-20.572-.597-1.117-1.29-2.298-2.453-2.797-2.201-.945-3.35 1.556-3.804 3.295-.69 2.636-.853 5.381-.893 8.107-.176 12.024 1.258 26.014 8.487 36.068 1.751 2.434 4.449 4.909 7.678 4.478 2.62-.35 5.928-2.282 6.461-5.065q.02-.098.031-.196C.197 1.342.104.666 0 0Zm-76.613-8.434c2.175 7.516 6.316 11.33 8.821 10.604s3.167-6.323 1.604-13.99c-1.782-8.741-8.633-16.141-11.138-15.416-2.506.726-1.464 11.286.713 18.802zm-39.863 26.792-.25 24.179h4.171s.239-19.163-3.564-23.793zm2.139 49.188c3.208 0 2.258-17.228 2.258-17.228h-4.515s-.95 17.228 2.257 17.228zm-19.841-109.485c-3.208-5.703-4.99-8.732-7.664-8.732s-7.782-2.674-7.544 26.019c.033 4.069.002 8.14.064 12.209.059 3.943.017 7.997.792 11.867l.207 1.035c.611 3.054 1.201 6.11 1.789 9.166 1.076 5.6 2.582 10.827 2.97 16.515.304 4.456.456 11.338.475 15.684h12.653s-.712-43.664.713-56.674c1.426-13.01-1.247-21.386-4.455-27.089zm-17.346 60.297-.251 22.337h4.171s.238-17.703-3.564-21.981zm2.138 49.188c3.208 0 2.257-17.228 2.257-17.228h-4.515s-.95 17.228 2.258 17.228zm-39.148-80.213c-2.005-.04-5.703 3.209-6.505 6.505-.773 3.172-.981 10.292 1.336 10.827 2.597.599 4.959-3.405 6.059-7.441 1.102-4.035.885-9.854-.89-9.891zm-10.04-36.46c-6.42.001-6.18 40.04-6.18 40.04s2.972-4.515 6.893-8.792 9.03-4.159 9.03-4.159-2.258-27.09-9.743-27.089zM28.535-78.028c-.689 2.147-2.365 3.944-2.763 5.347-3.06 10.809-7.873 32.488-8.287 66.564-.535 44.02 6.06 83.05 6.06 83.05s3.208 6.415-4.277 6.593c-7.486.179-9.624-14.435-10.515-19.782-.892-5.346-4.813-47.94-6.416-51.327 0 0 1.247-2.495-4.277-1.069-5.525 1.426-19.783 1.069-27.268-13.544-7.485-14.614-7.307-27.624-7.307-27.624s-10.158-21.387-25.841-21.564c-15.683-.179-15.149 18.713-15.149 18.713s12.119-1.07 16.931 13.187C-55.763-5.226-56.297 9.209-71.089 8.14s-19.782-20.495-21.03-34.039c0 0-10.158-27.268-16.039-26.377s-5.881 14.258-6.06 27.624-1.069 25.307 3.03 37.604 4.456 21.565 4.812 29.585h29.228s2.634-.019 2.634 3.723-3.525 3.583-3.525 3.583h-28.516s2.852 28.871-10.871 28.871c-13.722 0-11.775-28.871-11.775-28.871h-12s2.211 28.515-11.69 28.515-13.025-30.297-13.025-30.297l-34.915-.535s-3.743.357-3.743-3.742 4.098-3.386 4.098-3.386l34.56.891v-52.218s-6.223-5.168-11.213-4.099c0 0-1.247 27.802-16.752 27.267-15.505-.534-11.763-14.257-11.763-14.257s-15.148 2.673-15.504-10.158c-.357-12.832-.713-13.545-.713-13.545s-5.168-7.486-9.446-12.119-7.663-7.663-11.762 5.703-6.773 30.832-19.604 30.119c0 0-6.951-.713-10.337-7.307l-.713 13.188s-1.247 4.634-6.593 4.812c-3.563.119-7.308-1.782-7.308-3.029v-49.901s3.743-14.615 10.516-14.615c6.771 0 6.95 2.852 6.771 11.584-.178 8.734-1.171 30.654.038 31.545s2.636 5.347 7.804 4.812c5.169-.534 7.129-8.376 8.019-14.97.892-6.595 4.813-23.525 15.328-23.882 10.514-.356 18.356 11.05 18.356 11.05s1.248-20.495 20.495-20.139 22.099 25.663 23.703 35.287l11.584 4.099s-.177-42.058 19.96-40.989c0 0 11.05-.713 16.397 10.336 0 0 1.782 4.634 3.742.713 1.961-3.921 7.129-11.268 14.435-11.07 7.308.199 16.576 8.753 18.357 13.387 1.782 4.634 3.743 0 5.169-2.495s6.237-10.741 22.455-10.896c16.218-.154 28.158 17.49 28.158 17.49s4.277-9.446 15.861-9.446c11.585 0 22.456 15.862 23.169 22.278 0 0 1.247 4.811 1.07-2.674-.179-7.484 3.029-49.901 12.831-52.931 0 0 2.674 0 5.882 1.426s5.703-.178 6.772.713.148 2.933-.713 5.614z" style="fill:none;stroke:#000;stroke-width:1.5;stroke-linecap:butt;stroke-linejoin:miter;stroke-miterlimit:10;stroke-dasharray:none;stroke-opacity:1" transform="translate(373.515 88.498)"/><path d="M0 0c0-5.45-4.417-9.867-9.866-9.867A9.866 9.866 0 0 0-19.733 0c0 5.449 4.417 9.866 9.867 9.866C-4.417 9.866 0 5.449 0 0Z" style="fill:none;stroke:#000;stroke-width:1.5;stroke-linecap:butt;stroke-linejoin:miter;stroke-miterlimit:10;stroke-dasharray:none;stroke-opacity:1" transform="translate(428.626 14.545)"/><path d="M0 0c1.709 0 2.386.467 2.386 1.685C2.386 2.717 1.635 3.16 0 3.16h-1.365V0Zm1.119-1.328a7.4 7.4 0 0 0-1.083-.073h-1.401v-3.505h-1.574v9.468h2.742c2.865 0 4.156-.836 4.156-2.988 0-1.132-.48-1.992-1.451-2.484.677-.984 1.279-2.484 1.721-3.996H2.386c-.296 1.192-.763 2.557-1.267 3.578" style="fill:#000;fill-opacity:1;fill-rule:nonzero;stroke:none" transform="translate(418.48 14.717)"/></g></svg>